<?xml version="1.0" encoding="utf-8"?>
<!-- Generator: Adobe Illustrator 19.0.0, SVG Export Plug-In . SVG Version: 6.00 Build 0)  -->
<svg version="1.1" id="Layer_1" xmlns="http://www.w3.org/2000/svg" xmlns:xlink="http://www.w3.org/1999/xlink" x="0px" y="0px"
	 viewBox="0 0 612 444.3" style="enable-background:new 0 0 612 444.3;" xml:space="preserve">
<style type="text/css">
	.st0{fill:url(#SVGID_1_);}
</style>
<linearGradient id="SVGID_1_" gradientUnits="userSpaceOnUse" x1="0.5967" y1="222.1353" x2="611.4033" y2="222.1353">
	<stop  offset="0" style="stop-color:#FC3867"/>
	<stop  offset="1" style="stop-color:#FE5578"/>
</linearGradient>
<polygon class="st0" points="0.6,0.1 25.3,87.1 46.1,160.3 58.9,206 76.1,266.8 85.8,299.5 98.4,343.8 105.6,367.8 112.4,385.5 
	116.6,395.1 121.3,404.5 126.9,413.3 132.1,420.5 137.9,426.3 142.9,431.1 147.8,434.5 153.4,437.8 157.9,439.8 164.6,442.1 
	170.4,443.3 176.1,444.1 186.8,444.1 198.1,442 211.1,438.6 222.9,434.1 282.4,405.1 348.6,371.6 415.1,336.8 479.4,302.5 
	525.6,276.6 537.4,270.1 552.1,261.5 564.3,253.6 575.3,247.1 586.4,240 596.3,232.5 605.1,226.1 611.4,220.8 611.4,0.1 "/>
</svg>
