<?xml version="1.0" encoding="utf-8"?>
<!-- Generator: Adobe Illustrator 19.0.0, SVG Export Plug-In . SVG Version: 6.00 Build 0)  -->
<svg version="1.1" xmlns="http://www.w3.org/2000/svg" xmlns:xlink="http://www.w3.org/1999/xlink" x="0px" y="0px"
	 viewBox="0 0 612 306" style="enable-background:new 0 0 612 306;" xml:space="preserve">
<style type="text/css">
	.st0{display:none;}
	.st1{fill:url(#SVGID_1_);}
</style>
<g id="Layer_1" class="st0">
	
		<image style="display:inline;overflow:visible;" width="1181" height="577" xlink:href="Untitled-4.png"  transform="matrix(0.5161 0 0 0.5161 0 6)">
	</image>
</g>
<g id="Layer_2">
	<linearGradient id="SVGID_1_" gradientUnits="userSpaceOnUse" x1="-9.094947e-013" y1="154.5417" x2="608.625" y2="154.5417">
		<stop  offset="0" style="stop-color:#FC3968"/>
		<stop  offset="1" style="stop-color:#FC3968"/>
	</linearGradient>
	<polygon class="st1" points="0,6 256.8,32.7 396,47.3 464.2,55.2 495.3,58.7 520.7,61.5 541.5,64 557.3,65.7 568,67.2 578.2,68.8 
		583.7,69.8 588.3,71 591.7,72 594,72.8 595.2,73.4 596.7,74.3 598.5,75.3 600.1,76.5 602,78.2 603.1,79.5 604.5,81.4 605.6,83.3 
		606.8,85.9 607.3,88.1 608,90.4 608.3,92.7 608.6,96.5 608.6,98.6 608.4,101.8 607.8,105.6 606.5,109.5 603.8,115.8 600.7,122.6 
		591.8,141.2 585.6,154.3 581.8,162.1 580.4,165.4 578.8,168.2 576.9,171.9 573.2,175.9 567.8,180.2 561.3,184.2 551.7,188.2 
		541.4,190.5 530.2,193 513.9,196.3 478.2,203.9 430,213.8 397.8,220.4 366.3,226.8 337.3,232.9 306.5,239.1 255.5,250.1 201.4,261 
		161.3,269.5 122.4,277.6 0,303.1 	"/>
</g>
</svg>
