<?xml version="1.0" encoding="utf-8"?>
<!-- Generator: Adobe Illustrator 19.0.0, SVG Export Plug-In . SVG Version: 6.00 Build 0)  -->
<svg version="1.1" id="Layer_1" xmlns="http://www.w3.org/2000/svg" xmlns:xlink="http://www.w3.org/1999/xlink" x="0px" y="0px"
	 viewBox="0 244 612 306" style="enable-background:new 0 244 612 306;" xml:space="preserve">
<style type="text/css">
	.st0{display:none;}
	.st1{fill:url(#SVGID_1_);}
</style>
<g id="Layer_1_1_" class="st0">
</g>
<g id="Layer_2">
	
		<linearGradient id="SVGID_1_" gradientUnits="userSpaceOnUse" x1="-3.4" y1="397.45" x2="605.2" y2="397.45" gradientTransform="matrix(-1 0 0 1 608.6 1.1)">
		<stop  offset="0" style="stop-color:#FC3968"/>
		<stop  offset="1" style="stop-color:#FC3968"/>
	</linearGradient>
	<polygon class="st1" points="612,547.1 355.2,520.4 216,505.8 147.8,497.9 116.7,494.4 91.3,491.6 70.5,489.1 54.7,487.4 44,485.9 
		33.8,484.3 28.3,483.3 23.7,482.1 20.3,481.1 18,480.3 16.8,479.7 15.3,478.8 13.5,477.8 11.9,476.6 10,474.9 8.9,473.6 7.5,471.7 
		6.4,469.8 5.2,467.2 4.7,465 4,462.7 3.7,460.4 3.4,456.6 3.4,454.5 3.6,451.3 4.2,447.5 5.5,443.6 8.2,437.3 11.3,430.5 
		20.2,411.9 26.4,398.8 30.2,391 31.6,387.7 33.2,384.9 35.1,381.2 38.8,377.2 44.2,372.9 50.7,368.9 60.3,364.9 70.6,362.6 
		81.8,360.1 98.1,356.8 133.8,349.2 182,339.3 214.2,332.7 245.7,326.3 274.7,320.2 305.5,314 356.5,303 410.6,292.1 450.7,283.6 
		489.6,275.5 612,250 	"/>
</g>
</svg>
